<?xml version="1.0" encoding="UTF-8" standalone="no"?>
<!-- Created with Inkscape (http://www.inkscape.org/) -->

<svg
   width="2000"
   height="668"
   viewBox="0 0 529.16665 176.74167"
   version="1.1"
   id="svg5"
   inkscape:version="1.2.2 (b0a8486541, 2022-12-01)"
   sodipodi:docname="pieces.svg"
   xml:space="preserve"
   inkscape:export-filename="PiecesNew.png"
   inkscape:export-xdpi="96"
   inkscape:export-ydpi="96"
   xmlns:inkscape="http://www.inkscape.org/namespaces/inkscape"
   xmlns:sodipodi="http://sodipodi.sourceforge.net/DTD/sodipodi-0.dtd"
   xmlns="http://www.w3.org/2000/svg"
   xmlns:svg="http://www.w3.org/2000/svg"><sodipodi:namedview
     id="namedview7"
     pagecolor="#ffffff"
     bordercolor="#666666"
     borderopacity="1.0"
     inkscape:showpageshadow="2"
     inkscape:pageopacity="0.0"
     inkscape:pagecheckerboard="0"
     inkscape:deskcolor="#d1d1d1"
     inkscape:document-units="mm"
     showgrid="false"
     inkscape:zoom="0.35355339"
     inkscape:cx="830.14336"
     inkscape:cy="627.91082"
     inkscape:window-width="1920"
     inkscape:window-height="1011"
     inkscape:window-x="0"
     inkscape:window-y="3472"
     inkscape:window-maximized="1"
     inkscape:current-layer="layer1" /><defs
     id="defs2" /><g
     inkscape:label="Layer 1"
     inkscape:groupmode="layer"
     id="layer1"><path
       style="fill:#ffffff;fill-opacity:1;stroke:#000000;stroke-width:3.5;stroke-dasharray:none;stroke-opacity:1"
       d="m 72.176159,77.729097 c 4.349499,-2.55672 6.667074,-6.221218 7.019981,-11.09988 0.636969,-8.805671 -6.713802,-15.7762 -20.200557,-19.15573 -2.566419,-0.643093 -4.789967,-1.251025 -4.941214,-1.351006 -0.151416,-0.09981 0.06182,-0.920576 0.472963,-1.823686 0.651599,-1.43006 0.531942,-1.81189 -0.925113,-2.958171 -0.920236,-0.723906 -2.012076,-1.429153 -2.426288,-1.567187 -0.772222,-0.257463 -0.466158,-1.321232 0.944395,-3.282667 0.656533,-0.912921 0.467291,-1.591514 -1.059233,-3.79391 -1.022257,-1.475144 -1.662402,-2.999741 -1.422518,-3.387866 0.239884,-0.388465 1.873818,-0.705757 3.630869,-0.705757 h 3.194767 l 0.407179,-5.770486 c 0.224005,-3.173785 0.250659,-6.023527 0.05955,-6.332824 -0.191113,-0.309071 -2.16837,-0.562565 -4.39379,-0.562565 h -4.046213 l 0.436102,-3.289643 0.436667,-3.2896447 -3.012501,-0.451979 c -1.6569,-0.2486178 -4.049048,-0.257465 -5.315897,-0.017016 l -2.303339,0.4321317 0.391866,3.309265 0.391868,3.309321 H 35.42293 31.330441 v 6.332824 6.332824 h 3.627012 c 1.994894,0 3.776443,0.241586 3.95905,0.537046 0.348767,0.563699 -0.412283,2.098276 -2.507667,5.057922 -1.162955,1.642554 -1.175091,1.85947 -0.166728,2.973769 1.572914,1.738052 1.353275,2.591995 -0.976605,3.796858 -1.387358,0.717384 -1.960584,1.433577 -1.747808,2.183625 0.174101,0.61383 0.428163,1.523803 0.564267,2.022114 0.167294,0.611847 -1.052541,1.270421 -3.756878,2.02807 -5.93971,1.664102 -12.452533,4.913652 -15.680475,7.823791 -3.013635,2.716928 -5.964435,8.108703 -5.9691411,10.907009 -0.011353,5.581074 4.5765091,11.791291 9.7460951,13.198214 1.619245,0.440637 11.489536,0.657661 26.574099,0.584227 L 68.99376,79.601263 Z M 29.775491,47.399742 C 40.50623,44.983546 47.286139,45.22072 56.856412,47.072421"
       id="path354-3"
       sodipodi:nodetypes="csssssssssscssscccsccccccccssssssssscsscccc" /><path
       style="fill:#ffffff;fill-opacity:1;stroke:#000000;stroke-width:3.5;stroke-dasharray:none;stroke-opacity:1"
       d="m 152.10154,76.582424 c -2.4e-4,-1.99701 1.70016,-9.008828 2.95739,-12.195242 0.59907,-1.518322 1.09949,-3.127808 1.11202,-3.576593 0.0276,-1.065875 1.39598,-4.317611 9.59936,-22.84764 6.25837,-14.136475 6.70371,-15.299778 5.85735,-15.299778 -0.40492,0 -7.53579,6.765593 -9.90658,9.399234 l -1.27162,1.412616 0.28861,-2.141989 c 0.15889,-1.178102 0.14707,-2.141954 -0.0237,-2.141954 -0.17269,0 -2.10039,1.652351 -4.28359,3.671922 -2.18315,2.019571 -4.12095,3.671956 -4.30618,3.671956 -0.18531,0 -0.90219,-2.249066 -1.59328,-4.997905 -0.69109,-2.748874 -1.43414,-5.154581 -1.65127,-5.34607 -0.48382,-0.426606 -3.34064,3.419793 -5.41016,7.28404 l -1.52952,2.855951 -0.0158,-1.89743 c -0.0237,-2.649537 -1.632,-10.63421 -2.78254,-13.810351 -1.28889,-3.558111 -5.63521,-10.8118148 -6.47833,-10.8118148 -0.96878,0 -4.42104,5.8902698 -6.09763,10.4038468 -1.00217,2.697956 -1.67146,5.714022 -2.20231,9.923928 l -0.76262,6.047987 -1.53527,-2.741584 c -3.34975,-5.981697 -6.11186,-8.754447 -6.11186,-6.13535 0,1.130503 -1.76218,8.87204 -2.08399,9.155334 -0.47775,0.420568 -3.98497,-2.172984 -6.01601,-4.448741 -2.52495,-2.829225 -3.65689,-3.198874 -2.95633,-0.965427 0.69814,2.22588 0.23065,2.56155 -1.12389,0.806877 -1.57727,-2.043346 -9.071223,-9.195076 -9.63508,-9.195076 -0.627769,0 -0.528174,1.005343 0.251155,2.536108 0.650519,1.2776 7.651705,16.99437 11.228905,25.207462 0.92849,2.131785 1.83868,4.030742 2.02269,4.21994 0.18412,0.189164 0.82601,0.06491 1.42681,-0.275935 1.84163,-1.045189 6.88815,-1.995032 9.18742,-1.729197 3.73507,0.431813 28.01938,0.522508 28.64123,0.106904 0.76096,-0.50852 7.34662,1.114873 8.9253,2.200057 1.87535,1.090292 0.5229,0.705999 -0.93743,0.511574 -1.14707,-0.152719 -9.28082,-0.291902 -18.07507,-0.309603 -14.89482,-0.03124 -16.40195,0.03471 -22.01449,0.933044 -3.31375,0.530664 -6.08729,1.013915 -6.16343,1.073823 -0.0761,0.06005 -0.008,0.565998 0.15101,1.124602 l 0.2894,1.015686 c 0.86359,2.507656 1.57144,4.22991 2.24474,6.085313 1.45094,3.971841 2.31015,7.896374 2.31579,10.577392 0.002,0.916279 0.0907,1.74249 0.19753,1.835961 0.10646,0.09337 8.76192,0.170073 19.23389,0.170073 h 19.03999 z"
       id="path354-6" /><path
       style="fill:#ffffff;fill-opacity:1;stroke:#000000;stroke-width:3.5;stroke-dasharray:none;stroke-opacity:1"
       d="m 237.7173,77.234171 c 0.93229,-1.574014 10.96948,-17.870842 10.08152,-18.053426 -3.80561,-7.10223 -11.27173,-5.971431 -21.24698,-6.340953 -9.46701,-0.405701 -23.75231,-7.98918 -31.23672,-0.746237 -2.74719,2.081565 -2.66772,6.362289 -2.62863,9.640078 0.18156,5.491796 5.3841,8.530549 8.82804,12.051553 1.62879,0.95443 2.37386,3.433948 3.98045,3.970634 10.61798,0.05761 21.26516,0.203537 31.86008,0.248715 0.20695,-0.0518 0.9861,-0.656419 0.36224,-0.77039 z"
       id="path354-7"
       sodipodi:nodetypes="scccccccss" /><path
       style="fill:#ffffff;fill-opacity:1;stroke:#000000;stroke-width:3.5;stroke-dasharray:none;stroke-opacity:1"
       d="m 228.68927,70.510976 c 6.06058,-2.205371 13.42199,-2.36917 17.92962,-7.58695 2.66722,-3.377171 0.44665,-7.818859 -1.16727,-11.143921 -4.89609,-8.76127 -14.31935,-13.483575 -20.47976,-21.154292 -3.62665,-3.438429 4.90732,-3.917347 2.03509,-7.508335 -0.6819,-1.082471 -4.51206,-3.125152 -3.25284,-3.822137 1.77921,0.756384 6.12711,3.628531 6.85487,1.122793 -0.94211,-1.431645 -6.58363,-2.953458 -2.34104,-3.864161 4.63383,-1.181393 -1.70759,-5.936971 -3.73055,-2.763111 -2.077,2.050721 -2.50428,0.203719 -1.41345,-1.696425 1.77244,-3.5727573 -4.21395,-3.5715064 -5.30154,-1.604477 0.0536,1.690647 2.71614,6.291913 -0.74618,3.60069 -1.33081,-1.88417 -5.42136,-1.014243 -5.73867,0.584241 0.91219,1.703765 2.92565,2.210168 4.53477,3.038521 -1.4789,1.111902 -4.99078,0.805352 -4.82674,2.914244 1.55773,2.466338 5.64963,-1.885312 6.38705,-0.425246 -1.96301,1.610826 -5.37076,5.236901 -1.72249,7.021217 5.12054,0.66871 0.34873,5.236185 -1.58907,6.824082 -5.32766,5.00751 -11.43422,9.379463 -15.51445,15.555099 -1.42405,3.33433 2.15517,6.236469 4.92872,7.353521 7.79871,3.140055 16.46189,3.229896 24.7294,2.536826 5.46578,-0.568325 11.07529,-1.673023 15.67199,-4.845385 1.63853,1.295733 3.9515,3.46798 1.88604,5.500477 -6.14518,6.703999 -15.70955,8.866887 -24.50003,8.594044 -4.8966,0.0478 -9.86214,-0.126559 -14.688,-0.619846 2.40657,1.455031 5.56986,1.529412 8.34287,2.091068 3.25753,0.305071 6.49434,0.826923 9.74551,1.134215 1.36256,-0.01825 2.6852,-0.403784 3.96615,-0.836752 z"
       id="path1273" /><path
       style="fill:#ffffff;fill-opacity:1;stroke:#000000;stroke-width:3.5;stroke-dasharray:none;stroke-opacity:1"
       d="m 287.04041,77.826682 c 0.0772,0.562394 -0.67675,-0.198806 0.12328,-1.075267 0.71082,-0.778795 0.95261,-1.877783 1.27606,-5.799594 0.71921,-8.721302 3.58934,-13.184833 11.913,-18.526745 4.25124,-2.728356 4.96938,-3.445466 4.96938,-4.962256 0,-1.981733 -2.40192,-3.411529 -6.84796,-4.076313 -3.87253,-0.579043 -3.97944,-0.555625 -7.0359,1.541641 -3.37505,2.315892 -5.1051,3.084472 -6.94291,3.084472 -1.94104,0 -3.92602,-0.9297 -4.2561,-1.99341 -0.23223,-0.74812 0.0487,-1.151131 1.6183,-2.323302 1.04452,-0.779984 1.80446,-1.494745 1.68874,-1.588355 -0.11567,-0.09361 -1.44008,0.01528 -2.94304,0.240885 -2.0579,0.309556 -3.00893,0.30922 -3.8515,-0.0014 -1.08557,-0.399933 -1.11886,-0.516625 -1.11886,-3.924372 0,-2.544125 0.18362,-3.724072 0.66567,-4.280884 0.36604,-0.422801 4.30435,-3.04148 8.75165,-5.819294 11.42942,-7.138893 10.394,-6.306615 9.4516,-7.597034 -1.44076,-1.972797 -0.77532,-7.479975 0.90378,-7.479975 0.33589,0 0.61094,0.13233 0.61094,0.293637 0,0.1616 0.7478,1.117925 1.66174,2.125288 0.91392,1.007362 2.0939,2.447769 2.62215,3.200951 1.07671,1.535086 1.01179,1.610431 2.11904,-2.460668 1.08414,-3.986241 1.41037,-4.038472 4.38081,-0.701466 2.61792,2.941006 3.81803,5.110202 3.87046,6.995946 0.0377,1.30853 0.77068,3.010711 0.82395,1.910015 0.0264,-0.545655 0.28386,-0.606454 1.69288,-0.399963 7.00367,1.026357 11.80767,4.434623 13.89429,9.857461 1.0486,2.725155 1.11011,8.038557 0.16357,14.125172 -0.36791,2.365595 -0.78618,6.47853 -0.92953,9.139835 -0.4099,7.610419 0.83269,11.131109 6.00711,17.020229 1.4786,1.682819 2.68834,3.238974 2.68834,3.458059 0,0.289063 -6.48579,0.361726 -23.60868,0.264669 -12.98477,-0.07349 -24.40888,-0.587273 -24.36232,-0.248203 z M 299.43123,27.53286 c 0.51392,-0.314177 -2.73502,-0.136902 -2.98873,-0.01009 -0.65035,0.325104 -2.73852,2.209165 -2.28511,2.209165 0.213,0 2.23796,-0.343146 2.73288,-0.645707 z m 32.61778,45.129153 c 1.98931,0 -2.80036,-3.925683 -3.51985,-5.837619 -1.07404,-2.854105 -0.97688,-8.971701 0.25596,-16.124558 1.29672,-7.523152 1.5765,-12.040715 0.93566,-15.108538 -1.38805,-6.644801 -6.8979,-11.333972 -14.53764,-12.372314 -3.0058,-0.408531 -3.21484,-0.496196 -3.22468,-1.352622 -0.007,-0.741808 -0.95792,-2.895117 -2.45817,-5.575297 -0.37954,-0.678048 10.38486,0.0018 13.2761,0.838528 7.48625,2.166452 14.15773,7.794926 16.71034,14.097914 0.94216,2.326381 1.06152,3.260928 1.04489,8.18196 -0.0227,6.430565 -0.1632,6.953013 -4.43453,16.390296 -3.64402,8.050997 -4.50748,11.361811 -3.82809,14.678053 0.5205,2.540587 -1.37792,2.184197 -0.22014,2.184197 z"
       id="path354-5"
       sodipodi:nodetypes="ssssssssssscssssssssssscssssssssssssssssssscssscsssss" /><path
       style="fill:#ffffff;fill-opacity:1;stroke:#000000;stroke-width:3.5;stroke-linecap:round;stroke-linejoin:round;stroke-dasharray:none;stroke-opacity:1"
       d="m 502.31687,78.59212 c 2.54105,-0.348485 4.27881,-2.400789 4.21773,-4.248354 -0.22779,-6.890488 -11.0653,-4.69005 -10.9064,-14.512792 0.0161,-0.994825 -0.37433,-3.093022 -0.98802,-4.772422 -7.38328,-1.097464 -12.95813,-1.206522 -20.93543,-0.336467 -1.399,0.783659 -1.58099,2.614416 -1.60265,4.885351 -0.0947,9.924241 -11.6978,8.297391 -12.0451,14.597261 -0.0725,1.315346 -0.46197,4.085863 3.11532,4.45854 11.53281,1.20147 26.3595,1.682249 39.14455,-0.07112 z m -4.96285,-24.563122 c 1.19205,-1.66486 1.48833,-6.361378 -0.0817,-7.31218 -7.29157,-2.280569 -19.70885,-2.220341 -26.44621,-0.695977 -1.60502,0.750857 -1.82912,6.887298 -0.52366,7.784658 9.01238,0.09949 18.04334,0.517801 27.05157,0.223499 z M 489.823,43.6235 c 0.25848,-0.412192 -1.04418,-4.054323 0.4589,-5.686483 3.30208,-3.585689 4.98259,-4.17843 4.97282,-8.968764 -0.0133,-6.520492 -5.61805,-9.335399 -10.70909,-9.255427 -6.54245,0.102771 -10.89259,1.921927 -11.35019,9.056212 -0.0586,5.648548 1.43809,6.380399 4.4461,9.43859 1.39036,1.488459 0.0267,5.611099 0.37648,6.080286 2.64077,0.412655 10.66565,1.152445 11.80498,-0.664414 z"
       id="path354-35"
       sodipodi:nodetypes="cssccssssccccccssscccss" /><path
       style="fill:#ffffff;stroke:#000000;stroke-width:3.5;stroke-linecap:butt;stroke-linejoin:miter;stroke-opacity:1;fill-opacity:1;stroke-dasharray:none"
       d="m 373.48432,17.774724 h 8.63222 v 3.606939 h 9.32741 v -3.618979 h 10.0236 v 3.924265 h 9.58718 v -3.977553 h 8.26201 v 9.541256 h -45.7127 z m 3.32453,9.703827 5.78637,5.800397 h 28.35135 l 5.56152,-5.561519 m -34.62249,5.276822 -5.19499,32.213275 -5.31712,5.317112 v 5.835123 h 51.31298 v -5.88701 l -5.39839,-5.398382 -5.64595,-32.471312 M 376.6748,65.189736 h 40.65207 m -46.20725,5.694705 50.92166,0"
       id="path1261" /><path
       style="fill:#ffffff;fill-opacity:1;stroke:#000000;stroke-width:3.5;stroke-dasharray:none;stroke-opacity:1"
       d="m 117.93945,76.890799 c -0.17559,-1.867397 -0.29226,-4.393869 -0.42218,-6.02828 -0.19766,-2.486674 0.38383,-3.073476 -0.99614,-5.618851 -0.79471,-1.46586 -1.35167,-2.747295 -1.23768,-2.847638 0.11395,-0.100309 0.97607,0.64352 1.91576,1.653028 2.83134,3.041747 5.70398,3.904114 5.70398,1.186375 0,-0.540695 -0.30596,-1.627882 -0.68005,-2.415895 -0.58212,-1.226438 -0.58602,-1.464575 -0.0276,-1.653392 1.28944,-0.435561 2.25649,0.07671 2.79404,1.480403 l 0.54687,1.427976 5.98265,0.0069 c 3.29044,0.0033 6.61278,0.155496 7.38297,0.338412 1.36487,0.324181 1.41486,0.284613 1.976,-1.562403 0.52419,-1.725378 0.68912,-1.883373 1.84392,-1.766335 1.00055,0.10135 1.22293,0.300926 1.05358,0.944568 -0.11788,0.448786 -0.22237,1.733969 -0.23183,2.855933 -0.0158,1.951333 0.041,2.045846 1.32489,2.174789 0.79348,0.07983 1.83532,-0.18118 2.54905,-0.638157 2.38056,-1.524449 2.55054,-1.477904 1.32508,0.362881 -1.342,2.015892 -2.80513,4.085862 -1.10961,10.63758"
       id="path1265" /><path
       style="fill:#000000;fill-opacity:1;stroke:#ffffff;stroke-width:3.5;stroke-dasharray:none;stroke-opacity:1"
       d="m 71.223167,166.63999 c 4.3495,-2.55672 6.66707,-6.22122 7.01998,-11.09988 0.63697,-8.80567 -6.7138,-15.7762 -20.20056,-19.15573 -2.56642,-0.6431 -4.78996,-1.25103 -4.94121,-1.35101 -0.15142,-0.0998 0.0618,-0.92057 0.47296,-1.82368 0.6516,-1.43007 0.53194,-1.81189 -0.92511,-2.95818 -0.92024,-0.7239 -2.01208,-1.42915 -2.42629,-1.56718 -0.77222,-0.25747 -0.46616,-1.32124 0.9444,-3.28267 0.65653,-0.91292 0.46729,-1.59151 -1.05924,-3.79391 -1.02225,-1.47514 -1.6624,-2.99974 -1.42251,-3.38787 0.23988,-0.38846 1.87381,-0.70575 3.63086,-0.70575 h 3.19477 l 0.40718,-5.77049 c 0.22401,-3.17378 0.25066,-6.02353 0.0596,-6.33282 -0.19111,-0.30907 -2.16837,-0.56257 -4.39379,-0.56257 h -4.04621 l 0.4361,-3.28964 0.43667,-3.289648 -3.0125,-0.45197 c -1.6569,-0.24862 -4.04905,-0.25747 -5.3159,-0.017 l -2.30334,0.43213 0.39187,3.309268 0.39186,3.30932 h -4.09277 -4.09249 v 6.33282 6.33282 h 3.62701 c 1.9949,0 3.77645,0.24159 3.95905,0.53705 0.34877,0.5637 -0.41228,2.09828 -2.50766,5.05792 -1.16296,1.64256 -1.17509,1.85947 -0.16673,2.97377 1.57291,1.73805 1.35327,2.592 -0.97661,3.79686 -1.38735,0.71738 -1.96058,1.43358 -1.7478,2.18362 0.1741,0.61383 0.42816,1.52381 0.56426,2.02212 0.1673,0.61185 -1.05254,1.27042 -3.75688,2.02807 -5.93971,1.6641 -12.45253,4.91365 -15.68047,7.82379 -3.01364,2.71693 -5.9644402,8.1087 -5.9691402,10.90701 -0.0114,5.58107 4.5765102,11.79129 9.7460902,13.19821 1.61925,0.44064 11.48954,0.65766 26.5741,0.58423 l 23.9981,-0.11683 z m -42.40067,-30.32936 c 10.73074,-2.41619 17.51065,-2.17902 27.08092,-0.32732"
       id="path354-3-6"
       sodipodi:nodetypes="csssssssssscssscccsccccccccssssssssscsscccc" /><path
       style="fill:#000000;fill-opacity:1;stroke:#ffffff;stroke-width:3.5;stroke-dasharray:none;stroke-opacity:1"
       d="m 151.14855,165.49331 c -2.4e-4,-1.99701 1.70016,-9.00882 2.95739,-12.19524 0.59907,-1.51832 1.09949,-3.12781 1.11202,-3.57659 0.0276,-1.06588 1.39598,-4.31761 9.59936,-22.84764 6.25837,-14.13648 6.70371,-15.29978 5.85735,-15.29978 -0.40492,0 -7.53579,6.76559 -9.90658,9.39923 l -1.27162,1.41262 0.28861,-2.14199 c 0.15889,-1.1781 0.14707,-2.14195 -0.0237,-2.14195 -0.17269,0 -2.10039,1.65235 -4.28359,3.67192 -2.18315,2.01957 -4.12095,3.67196 -4.30618,3.67196 -0.18531,0 -0.90219,-2.24907 -1.59328,-4.99791 -0.69109,-2.74887 -1.43414,-5.15458 -1.65127,-5.34607 -0.48382,-0.42661 -3.34064,3.41979 -5.41016,7.28404 l -1.52952,2.85595 -0.0158,-1.89743 c -0.0237,-2.64953 -1.632,-10.63421 -2.78254,-13.81035 -1.28889,-3.55811 -5.63521,-10.811808 -6.47833,-10.811808 -0.96878,0 -4.42104,5.890268 -6.09763,10.403838 -1.00217,2.69796 -1.67146,5.71403 -2.20231,9.92393 l -0.76262,6.04799 -1.53527,-2.74159 c -3.34975,-5.98169 -6.11186,-8.75444 -6.11186,-6.13535 0,1.13051 -1.76218,8.87204 -2.08399,9.15534 -0.47775,0.42057 -3.98497,-2.17299 -6.01601,-4.44874 -2.52495,-2.82923 -3.65689,-3.19888 -2.95633,-0.96543 0.69814,2.22588 0.23065,2.56155 -1.12389,0.80688 -1.57727,-2.04335 -9.071223,-9.19508 -9.635083,-9.19508 -0.62777,0 -0.52817,1.00534 0.25116,2.53611 0.65051,1.2776 7.651703,16.99437 11.228903,25.20746 0.92849,2.13179 1.83868,4.03074 2.02269,4.21994 0.18412,0.18916 0.82601,0.0649 1.42681,-0.27593 1.84163,-1.04519 6.88815,-1.99504 9.18742,-1.7292 3.73507,0.43181 28.01938,0.52251 28.64123,0.1069 0.76096,-0.50852 7.34662,1.11488 8.9253,2.20006 1.87535,1.09029 0.5229,0.706 -0.93743,0.51157 -1.14707,-0.15272 -9.28082,-0.2919 -18.07507,-0.3096 -14.89482,-0.0312 -16.40195,0.0347 -22.01449,0.93304 -3.31375,0.53067 -6.08729,1.01392 -6.16343,1.07383 -0.0761,0.06 -0.008,0.566 0.15101,1.1246 l 0.2894,1.01569 c 0.86359,2.50765 1.57144,4.22991 2.24474,6.08531 1.45094,3.97184 2.31015,7.89637 2.31579,10.57739 0.002,0.91628 0.0907,1.74249 0.19753,1.83596 0.10646,0.0934 8.76192,0.17008 19.23389,0.17008 h 19.03999 z"
       id="path354-6-2" /><path
       style="fill:#000000;fill-opacity:1;stroke:#ffffff;stroke-width:3.5;stroke-dasharray:none;stroke-opacity:1"
       d="m 236.76431,166.14506 c 0.93229,-1.57401 10.96948,-17.87084 10.08152,-18.05343 -3.80561,-7.10222 -11.27173,-5.97143 -21.24698,-6.34095 -9.46701,-0.4057 -23.75231,-7.98918 -31.23672,-0.74623 -2.74719,2.08156 -2.66772,6.36228 -2.62863,9.64007 0.18156,5.4918 5.3841,8.53055 8.82804,12.05156 1.62879,0.95443 2.37386,3.43394 3.98045,3.97063 10.61798,0.0576 21.26516,0.20354 31.86008,0.24871 0.20695,-0.0518 0.9861,-0.65641 0.36224,-0.77038 z"
       id="path354-7-9"
       sodipodi:nodetypes="scccccccss" /><path
       style="fill:#000000;fill-opacity:1;stroke:#ffffff;stroke-width:3.5;stroke-dasharray:none;stroke-opacity:1"
       d="m 227.73628,159.42187 c 6.06058,-2.20538 13.42199,-2.36917 17.92962,-7.58695 2.66722,-3.37718 0.44665,-7.81886 -1.16727,-11.14393 -4.89609,-8.76127 -14.31935,-13.48357 -20.47976,-21.15429 -3.62665,-3.43843 4.90732,-3.91734 2.03509,-7.50833 -0.6819,-1.08247 -4.51206,-3.12515 -3.25284,-3.82214 1.77921,0.75639 6.12711,3.62853 6.85487,1.12279 -0.94211,-1.43164 -6.58363,-2.95345 -2.34104,-3.86416 4.63383,-1.18139 -1.70759,-5.936968 -3.73055,-2.76311 -2.077,2.05072 -2.50428,0.20372 -1.41345,-1.69642 1.77244,-3.572758 -4.21395,-3.571508 -5.30154,-1.604478 0.0536,1.690648 2.71614,6.291908 -0.74618,3.600688 -1.33081,-1.88417 -5.42136,-1.01424 -5.73867,0.58424 0.91219,1.70377 2.92565,2.21017 4.53477,3.03852 -1.4789,1.1119 -4.99078,0.80535 -4.82674,2.91425 1.55773,2.46633 5.64963,-1.88532 6.38705,-0.42525 -1.96301,1.61083 -5.37076,5.2369 -1.72249,7.02122 5.12054,0.66871 0.34873,5.23618 -1.58907,6.82408 -5.32766,5.00751 -11.43422,9.37946 -15.51445,15.5551 -1.42405,3.33433 2.15517,6.23647 4.92872,7.35352 7.79871,3.14005 16.46189,3.2299 24.7294,2.53682 5.46578,-0.56832 11.07529,-1.67302 15.67199,-4.84538 1.63853,1.29573 3.9515,3.46798 1.88604,5.50048 -6.14518,6.704 -15.70955,8.86688 -24.50003,8.59404 -4.8966,0.0478 -9.86214,-0.12656 -14.688,-0.61985 2.40657,1.45504 5.56986,1.52942 8.34287,2.09107 3.25753,0.30507 6.49434,0.82693 9.74551,1.13422 1.36256,-0.0182 2.6852,-0.40379 3.96615,-0.83675 z"
       id="path1273-1" /><path
       style="fill:#000000;fill-opacity:1;stroke:#ffffff;stroke-width:3.5;stroke-dasharray:none;stroke-opacity:1"
       d="m 286.08742,166.73757 c 0.0772,0.5624 -0.67675,-0.1988 0.12328,-1.07526 0.71082,-0.7788 0.95261,-1.87779 1.27606,-5.7996 0.71921,-8.7213 3.58934,-13.18483 11.913,-18.52674 4.25124,-2.72836 4.96938,-3.44547 4.96938,-4.96226 0,-1.98173 -2.40192,-3.41153 -6.84796,-4.07631 -3.87253,-0.57905 -3.97944,-0.55563 -7.0359,1.54164 -3.37505,2.31589 -5.1051,3.08447 -6.94291,3.08447 -1.94104,0 -3.92602,-0.9297 -4.2561,-1.99341 -0.23223,-0.74812 0.0487,-1.15113 1.6183,-2.3233 1.04452,-0.77999 1.80446,-1.49475 1.68874,-1.58836 -0.11567,-0.0936 -1.44008,0.0153 -2.94304,0.24089 -2.0579,0.30955 -3.00893,0.30922 -3.8515,-0.001 -1.08557,-0.39993 -1.11886,-0.51663 -1.11886,-3.92437 0,-2.54413 0.18362,-3.72408 0.66567,-4.28089 0.36604,-0.4228 4.30435,-3.04148 8.75165,-5.81929 11.42942,-7.13889 10.394,-6.30662 9.4516,-7.59704 -1.44076,-1.97279 -0.77532,-7.47997 0.90378,-7.47997 0.33589,0 0.61094,0.13233 0.61094,0.29364 0,0.1616 0.7478,1.11792 1.66174,2.12528 0.91392,1.00737 2.0939,2.44777 2.62215,3.20096 1.07671,1.53508 1.01179,1.61043 2.11904,-2.46067 1.08414,-3.98624 1.41037,-4.03847 4.38081,-0.70147 2.61792,2.94101 3.81803,5.1102 3.87046,6.99595 0.0377,1.30853 0.77068,3.01071 0.82395,1.91001 0.0264,-0.54565 0.28386,-0.60645 1.69288,-0.39996 7.00367,1.02636 11.80767,4.43462 13.89429,9.85746 1.0486,2.72516 1.11011,8.03856 0.16357,14.12517 -0.36791,2.3656 -0.78618,6.47853 -0.92953,9.13984 -0.4099,7.61042 0.83269,11.13111 6.00711,17.02023 1.4786,1.68282 2.68834,3.23897 2.68834,3.45806 0,0.28906 -6.48579,0.36172 -23.60868,0.26466 -12.98477,-0.0735 -24.40888,-0.58727 -24.36232,-0.2482 z m 12.39082,-50.29382 c 0.51392,-0.31418 -2.73502,-0.1369 -2.98873,-0.0101 -0.65035,0.3251 -2.73852,2.20916 -2.28511,2.20916 0.213,0 2.23796,-0.34314 2.73288,-0.6457 z m 32.61778,45.12915 c 1.98931,0 -2.80036,-3.92568 -3.51985,-5.83762 -1.07404,-2.8541 -0.97688,-8.9717 0.25596,-16.12455 1.29672,-7.52316 1.5765,-12.04072 0.93566,-15.10854 -1.38805,-6.6448 -6.8979,-11.33397 -14.53764,-12.37232 -3.0058,-0.40853 -3.21484,-0.49619 -3.22468,-1.35262 -0.007,-0.74181 -0.95792,-2.89511 -2.45817,-5.57529 -0.37954,-0.67805 10.38486,0.002 13.2761,0.83852 7.48625,2.16646 14.15773,7.79493 16.71034,14.09792 0.94216,2.32638 1.06152,3.26093 1.04489,8.18196 -0.0227,6.43056 -0.1632,6.95301 -4.43453,16.39029 -3.64402,8.051 -4.50748,11.36181 -3.82809,14.67806 0.5205,2.54058 -1.37792,2.18419 -0.22014,2.18419 z"
       id="path354-5-2"
       sodipodi:nodetypes="ssssssssssscssssssssssscssssssssssssssssssscssscsssss" /><path
       style="fill:#000000;fill-opacity:1;stroke:#ffffff;stroke-width:3.5;stroke-linecap:butt;stroke-linejoin:miter;stroke-dasharray:none;stroke-opacity:1"
       d="m 372.53133,106.68561 h 8.63222 v 3.60694 h 9.32741 v -3.61898 h 10.0236 v 3.92427 h 9.58718 v -3.97755 h 8.26201 v 9.54125 h -45.7127 z m 3.32453,9.70383 5.78637,5.8004 h 28.35135 l 5.56152,-5.56152 m -34.62249,5.27682 -5.19499,32.21328 -5.31712,5.31711 v 5.83512 h 51.31298 v -5.88701 l -5.39839,-5.39838 -5.64595,-32.47131 m -34.96733,32.58668 h 40.65207 m -46.20725,5.6947 h 50.92166"
       id="path1261-0" /><path
       style="fill:#000000;fill-opacity:1;stroke:#ffffff;stroke-width:3.5;stroke-dasharray:none;stroke-opacity:1"
       d="m 116.98646,165.80169 c -0.17559,-1.8674 -0.29226,-4.39387 -0.42218,-6.02828 -0.19766,-2.48668 0.38383,-3.07348 -0.99614,-5.61885 -0.79471,-1.46586 -1.35167,-2.7473 -1.23768,-2.84764 0.11395,-0.10031 0.97607,0.64352 1.91576,1.65303 2.83134,3.04175 5.70398,3.90411 5.70398,1.18637 0,-0.54069 -0.30596,-1.62788 -0.68005,-2.41589 -0.58212,-1.22644 -0.58602,-1.46458 -0.0276,-1.65339 1.28944,-0.43557 2.25649,0.0767 2.79404,1.4804 l 0.54687,1.42798 5.98265,0.007 c 3.29044,0.003 6.61278,0.1555 7.38297,0.33842 1.36487,0.32418 1.41486,0.28461 1.976,-1.56241 0.52419,-1.72537 0.68912,-1.88337 1.84392,-1.76633 1.00055,0.10135 1.22293,0.30093 1.05358,0.94457 -0.11788,0.44878 -0.22237,1.73397 -0.23183,2.85593 -0.0158,1.95133 0.041,2.04585 1.32489,2.17479 0.79348,0.0798 1.83532,-0.18118 2.54905,-0.63816 2.38056,-1.52445 2.55054,-1.4779 1.32508,0.36288 -1.342,2.01589 -2.80513,4.08587 -1.10961,10.63758"
       id="path1265-9" /><path
       style="fill:#000000;fill-opacity:1;stroke:#ffffff;stroke-width:3.5;stroke-linecap:round;stroke-linejoin:round;stroke-dasharray:none;stroke-opacity:1"
       d="m 502.31687,166.99965 c 2.54105,-0.34849 4.27881,-2.40079 4.21773,-4.24835 -0.22779,-6.89049 -11.0653,-4.69005 -10.9064,-14.5128 0.0161,-0.99482 -0.37433,-3.09302 -0.98802,-4.77242 -7.38328,-1.09746 -12.95813,-1.20652 -20.93543,-0.33647 -1.399,0.78366 -1.58099,2.61442 -1.60265,4.88536 -0.0947,9.92424 -11.6978,8.29739 -12.0451,14.59726 -0.0725,1.31534 -0.46197,4.08586 3.11532,4.45854 11.53281,1.20147 26.3595,1.68225 39.14455,-0.0711 z m -4.96285,-24.56312 c 1.19205,-1.66486 1.48833,-6.36138 -0.0817,-7.31218 -7.29157,-2.28057 -19.70885,-2.22034 -26.44621,-0.69598 -1.60502,0.75086 -1.82912,6.8873 -0.52366,7.78466 9.01238,0.0995 18.04334,0.5178 27.05157,0.2235 z m -7.53102,-10.4055 c 0.25848,-0.41219 -1.04418,-4.05432 0.4589,-5.68648 3.30208,-3.58569 4.98259,-4.17843 4.97282,-8.96877 -0.0133,-6.52049 -5.61805,-9.3354 -10.70909,-9.25543 -6.54245,0.10277 -10.89259,1.92193 -11.35019,9.05621 -0.0586,5.64856 1.43809,6.38041 4.4461,9.4386 1.39036,1.48846 0.0267,5.6111 0.37648,6.08028 2.64077,0.41266 10.66565,1.15245 11.80498,-0.66441 z"
       id="path1574"
       sodipodi:nodetypes="cssccssssccccccssscccss" /></g></svg>
